<svg
  xmlns="http://www.w3.org/2000/svg"
  viewBox="0 0 222 64"
  role="img"
  aria-labelledby="compact-dark-title compact-dark-desc"
  focusable="false"
>
  <title id="compact-dark-title">KAA</title>
  <desc id="compact-dark-desc">Logo der KI-Automatisierungs-Agentur KAA.</desc>
  <g fill="none" stroke-linecap="round" stroke-linejoin="round">
    <path d="M8 18h5c5 0 5 5 7 9l1 5" stroke="#0B0F17" stroke-width="4" />
    <path d="M8 46h5c5 0 5-5 7-9l1-5" stroke="#0B0F17" stroke-width="4" />
    <path d="m32 21 11 11-11 11-11-11Z" stroke="#2454D6" stroke-width="4" />
    <path d="M43 32h13m-5-5 5 5-5 5" stroke="#0B0F17" stroke-width="4" />
  </g>
  <circle cx="8" cy="18" r="3.5" fill="#2454D6" />
  <circle cx="8" cy="46" r="3.5" fill="#2454D6" />
  <circle cx="32" cy="32" r="3" fill="#0B0F17" />
  <g fill="#0B0F17">
    <path d="M82 13h10v15.25L107 13h13l-18.5 18.5L121 53h-13L92 35.4V53H82Z" />
    <path
      fill-rule="evenodd"
      d="m127 53 16-40h12l16 40h-11l-3.2-9h-15.6L138 53h-11Zm17.1-18h9.8L149 21.2 144.1 35Z"
      clip-rule="evenodd"
    />
    <path
      fill-rule="evenodd"
      d="m174 53 16-40h12l16 40h-11l-3.2-9h-15.6L185 53h-11Zm17.1-18h9.8L196 21.2 191.1 35Z"
      clip-rule="evenodd"
    />
  </g>
</svg>
